
      <svg
        width="300"
        height="500"
        viewBox="0 0 300 500"
        fill="none"
        xmlns="http://www.w3.org/2000/svg"
        role="img"
        aria-labelledby="descId"
      >
        <title id="titleId"></title>
        <desc id="descId"></desc>
        <style>
          .header {
            font: 600 18px 'Segoe UI', Ubuntu, Sans-Serif;
            fill: #006AFF;
            animation: fadeInAnimation 0.8s ease-in-out forwards;
          }
          @supports(-moz-appearance: auto) {
            /* Selector detects Firefox */
            .header { font-size: 15.5px; }
          }
          
    @keyframes slideInAnimation {
      from {
        width: 0;
      }
      to {
        width: calc(100%-100px);
      }
    }
    @keyframes growWidthAnimation {
      from {
        width: 0;
      }
      to {
        width: 100%;
      }
    }
    .stat {
      font: 600 14px 'Segoe UI', Ubuntu, "Helvetica Neue", Sans-Serif; fill: #417E87;
    }
    @supports(-moz-appearance: auto) {
      /* Selector detects Firefox */
      .stat { font-size:12px; }
    }
    .bold { font-weight: 700 }
    .lang-name {
      font: 400 11px "Segoe UI", Ubuntu, Sans-Serif;
      fill: #417E87;
    }
    .stagger {
      opacity: 0;
      animation: fadeInAnimation 0.3s ease-in-out forwards;
    }
    #rect-mask rect{
      animation: slideInAnimation 1s ease-in-out forwards;
    }
    .lang-progress{
      animation: growWidthAnimation 0.6s ease-in-out forwards;
    }
    

          
      /* Animations */
      @keyframes scaleInAnimation {
        from {
          transform: translate(-5px, 5px) scale(0);
        }
        to {
          transform: translate(-5px, 5px) scale(1);
        }
      }
      @keyframes fadeInAnimation {
        from {
          opacity: 0;
        }
        to {
          opacity: 1;
        }
      }
    
          
        </style>

        

        <rect
          data-testid="card-bg"
          x="0.5"
          y="0.5"
          rx="4.5"
          height="99%"
          stroke="#e4e2e2"
          width="299"
          fill="#ffffff00"
          stroke-opacity="1"
        />

        
      <g
        data-testid="card-title"
        transform="translate(25, 35)"
      >
        <g transform="translate(0, 0)">
      <text
        x="0"
        y="0"
        class="header"
        data-testid="header"
      >Most Used Languages</text>
    </g>
      </g>
    

        <g
          data-testid="main-card-body"
          transform="translate(0, 55)"
        >
          
    <svg data-testid="lang-items">
      <g transform="translate(0, 0)">
        <svg data-testid="pie">
          
      <g class="stagger" style="animation-delay: 100ms">
        <path
          data-testid="lang-pie"
          size="30.014748231344296"
          d="M 150 100 L 240 100 A 90 90 0 0 1 122.10916502646461 185.56927792425864 Z"
          fill="#f1e05a"
        />
      </g>
    
      <g class="stagger" style="animation-delay: 200ms">
        <path
          data-testid="lang-pie"
          size="20.64086292947364"
          d="M 150 100 L 122.10916502646461 185.56927792425864 A 90 90 0 0 1 60.0763490282216 96.29365464294325 Z"
          fill="#663399"
        />
      </g>
    
      <g class="stagger" style="animation-delay: 300ms">
        <path
          data-testid="lang-pie"
          size="12.396808912991537"
          d="M 150 100 L 60.0763490282216 96.29365464294325 A 90 90 0 0 1 88.60718134944814 34.1902604613842 Z"
          fill="#3572A5"
        />
      </g>
    
      <g class="stagger" style="animation-delay: 400ms">
        <path
          data-testid="lang-pie"
          size="8.992080584432674"
          d="M 150 100 L 88.60718134944814 34.1902604613842 A 90 90 0 0 1 133.38293525114366 11.547339445710762 Z"
          fill="#44a51c"
        />
      </g>
    
      <g class="stagger" style="animation-delay: 500ms">
        <path
          data-testid="lang-pie"
          size="7.498473749780272"
          d="M 150 100 L 133.38293525114366 11.547339445710762 A 90 90 0 0 1 175.34247306598985 13.641682167265557 Z"
          fill="#199f4b"
        />
      </g>
    
      <g class="stagger" style="animation-delay: 600ms">
        <path
          data-testid="lang-pie"
          size="5.843414668121024"
          d="M 150 100 L 175.34247306598985 13.641682167265557 A 90 90 0 0 1 204.6525949699494 28.494099103286146 Z"
          fill="#e34c26"
        />
      </g>
    
      <g class="stagger" style="animation-delay: 700ms">
        <path
          data-testid="lang-pie"
          size="4.592611800494706"
          d="M 150 100 L 204.6525949699494 28.494099103286146 A 90 90 0 0 1 222.74166825754475 47.003304828420625 Z"
          fill="#000080"
        />
      </g>
    
      <g class="stagger" style="animation-delay: 800ms">
        <path
          data-testid="lang-pie"
          size="3.797369655393083"
          d="M 150 100 L 222.74166825754475 47.003304828420625 A 90 90 0 0 1 233.2061102228744 65.69630892194144 Z"
          fill="#89e051"
        />
      </g>
    
      <g class="stagger" style="animation-delay: 900ms">
        <path
          data-testid="lang-pie"
          size="1.388641669168742"
          d="M 150 100 L 233.2061102228744 65.69630892194144 A 90 90 0 0 1 235.8788313420389 73.0774011780876 Z"
          fill="#00ADD8"
        />
      </g>
    
      <g class="stagger" style="animation-delay: 1000ms">
        <path
          data-testid="lang-pie"
          size="1.075423985259386"
          d="M 150 100 L 235.8788313420389 73.0774011780876 A 90 90 0 0 1 237.50065182271214 78.93733325049979 Z"
          fill="#3D6117"
        />
      </g>
    
      <g class="stagger" style="animation-delay: 1100ms">
        <path
          data-testid="lang-pie"
          size="0.9794625463524597"
          d="M 150 100 L 237.50065182271214 78.93733325049979 A 90 90 0 0 1 238.63041525918717 84.3587247647757 Z"
          fill="#c065db"
        />
      </g>
    
      <g class="stagger" style="animation-delay: 1200ms">
        <path
          data-testid="lang-pie"
          size="0.8345748975807807"
          d="M 150 100 L 238.63041525918717 84.3587247647757 A 90 90 0 0 1 239.32840782728726 89.02568657993373 Z"
          fill="#5e5086"
        />
      </g>
    
      <g class="stagger" style="animation-delay: 1300ms">
        <path
          data-testid="lang-pie"
          size="0.7464263049434913"
          d="M 150 100 L 239.32840782728726 89.02568657993373 A 90 90 0 0 1 239.74468421918618 93.22566206935679 Z"
          fill="#f2a542"
        />
      </g>
    
      <g class="stagger" style="animation-delay: 1400ms">
        <path
          data-testid="lang-pie"
          size="0.6523698882758153"
          d="M 150 100 L 239.74468421918618 93.22566206935679 A 90 90 0 0 1 239.94690230942103 96.90892171896783 Z"
          fill="#5686a5"
        />
      </g>
    
      <g class="stagger" style="animation-delay: 1500ms">
        <path
          data-testid="lang-pie"
          size="0.4972116575360156"
          d="M 150 100 L 239.94690230942103 96.90892171896783 A 90 90 0 0 1 239.99956438062037 99.71997982471079 Z"
          fill="#555555"
        />
      </g>
    
      <g class="stagger" style="animation-delay: 1600ms">
        <path
          data-testid="lang-pie"
          size="0.04951851885207026"
          d="M 150 100 L 239.99956438062037 99.71997982471079 A 90 90 0 0 1 240 100.00000000000006 Z"
          fill="#355570"
        />
      </g>
    
        </svg>
      </g>
      <g transform="translate(0, 220)">
        <svg data-testid="lang-names" x="25">
          <g transform="translate(0, 0)"><g transform="translate(0, 0)">
    <g class="stagger" style="animation-delay: 450ms">
      <circle cx="5" cy="6" r="5" fill="#f1e05a" />
      <text data-testid="lang-name" x="15" y="10" class='lang-name'>
        JavaScript 30.01%
      </text>
    </g>
  </g><g transform="translate(0, 25)">
    <g class="stagger" style="animation-delay: 600ms">
      <circle cx="5" cy="6" r="5" fill="#663399" />
      <text data-testid="lang-name" x="15" y="10" class='lang-name'>
        CSS 20.64%
      </text>
    </g>
  </g><g transform="translate(0, 50)">
    <g class="stagger" style="animation-delay: 750ms">
      <circle cx="5" cy="6" r="5" fill="#3572A5" />
      <text data-testid="lang-name" x="15" y="10" class='lang-name'>
        Python 12.40%
      </text>
    </g>
  </g><g transform="translate(0, 75)">
    <g class="stagger" style="animation-delay: 900ms">
      <circle cx="5" cy="6" r="5" fill="#44a51c" />
      <text data-testid="lang-name" x="15" y="10" class='lang-name'>
        QML 8.99%
      </text>
    </g>
  </g><g transform="translate(0, 100)">
    <g class="stagger" style="animation-delay: 1050ms">
      <circle cx="5" cy="6" r="5" fill="#199f4b" />
      <text data-testid="lang-name" x="15" y="10" class='lang-name'>
        Vim Script 7.50%
      </text>
    </g>
  </g><g transform="translate(0, 125)">
    <g class="stagger" style="animation-delay: 1200ms">
      <circle cx="5" cy="6" r="5" fill="#e34c26" />
      <text data-testid="lang-name" x="15" y="10" class='lang-name'>
        HTML 5.84%
      </text>
    </g>
  </g><g transform="translate(0, 150)">
    <g class="stagger" style="animation-delay: 1350ms">
      <circle cx="5" cy="6" r="5" fill="#000080" />
      <text data-testid="lang-name" x="15" y="10" class='lang-name'>
        Lua 4.59%
      </text>
    </g>
  </g><g transform="translate(0, 175)">
    <g class="stagger" style="animation-delay: 1500ms">
      <circle cx="5" cy="6" r="5" fill="#89e051" />
      <text data-testid="lang-name" x="15" y="10" class='lang-name'>
        Shell 3.80%
      </text>
    </g>
  </g></g><g transform="translate(150, 0)"><g transform="translate(0, 0)">
    <g class="stagger" style="animation-delay: 450ms">
      <circle cx="5" cy="6" r="5" fill="#00ADD8" />
      <text data-testid="lang-name" x="15" y="10" class='lang-name'>
        Go 1.39%
      </text>
    </g>
  </g><g transform="translate(0, 25)">
    <g class="stagger" style="animation-delay: 600ms">
      <circle cx="5" cy="6" r="5" fill="#3D6117" />
      <text data-testid="lang-name" x="15" y="10" class='lang-name'>
        TeX 1.08%
      </text>
    </g>
  </g><g transform="translate(0, 50)">
    <g class="stagger" style="animation-delay: 750ms">
      <circle cx="5" cy="6" r="5" fill="#c065db" />
      <text data-testid="lang-name" x="15" y="10" class='lang-name'>
        Emacs Lisp 0.98%
      </text>
    </g>
  </g><g transform="translate(0, 75)">
    <g class="stagger" style="animation-delay: 900ms">
      <circle cx="5" cy="6" r="5" fill="#5e5086" />
      <text data-testid="lang-name" x="15" y="10" class='lang-name'>
        Haskell 0.83%
      </text>
    </g>
  </g><g transform="translate(0, 100)">
    <g class="stagger" style="animation-delay: 1050ms">
      <circle cx="5" cy="6" r="5" fill="#f2a542" />
      <text data-testid="lang-name" x="15" y="10" class='lang-name'>
        Latte 0.75%
      </text>
    </g>
  </g><g transform="translate(0, 125)">
    <g class="stagger" style="animation-delay: 1200ms">
      <circle cx="5" cy="6" r="5" fill="#5686a5" />
      <text data-testid="lang-name" x="15" y="10" class='lang-name'>
        GLSL 0.65%
      </text>
    </g>
  </g><g transform="translate(0, 150)">
    <g class="stagger" style="animation-delay: 1350ms">
      <circle cx="5" cy="6" r="5" fill="#555555" />
      <text data-testid="lang-name" x="15" y="10" class='lang-name'>
        C 0.50%
      </text>
    </g>
  </g><g transform="translate(0, 175)">
    <g class="stagger" style="animation-delay: 1500ms">
      <circle cx="5" cy="6" r="5" fill="#355570" />
      <text data-testid="lang-name" x="15" y="10" class='lang-name'>
        GDScript 0.05%
      </text>
    </g>
  </g></g>
        </svg>
      </g>
    </svg>
  
        </g>
      </svg>
    